<?xml version="1.0" encoding="UTF-8"?>
<svg id="Ebene_1" data-name="Ebene 1" xmlns="http://www.w3.org/2000/svg" viewBox="0 0 772.11 772.11">
  <defs>
    <style>
      .cls-1 {
        fill: #022c22;
        stroke-width: 0px;
      }
    </style>
  </defs>
  <path class="cls-1" d="m446.6,434.69c4.44-15.66-3.54-27.71-9.33-41.06,1.89.01,3.23-.22,4.43.06,30.79,7.34,61.55,14.8,92.35,22.06,3.91.92,5.26,2.7,5.31,6.68.24,22.66-8.61,41.74-23.61,57.93-11.91,12.85-16.82,27.04-14.19,44.52,1.58,10.5,1.52,21.31,1.53,31.98.01,14.37-8.12,24.22-19.51,31.64-20.63,13.45-43.57,19.87-67.95,21.81-30.57,2.43-60.27-1.95-89.37-11.21-19.88-6.33-30.44-20.2-30.93-41.14-.51-21.78-.83-43.56-1.11-65.33-.04-3.42.61-6.85,1.07-11.62,4.05,2.21,7.11,4.07,10.34,5.55,1.29.59,2.96.36,4.46.5-.4-1.6-.29-3.65-1.27-4.73-12.93-14.35-26.09-28.48-39.02-42.82-12.49-13.84-27.05-25.87-36.45-42.42-6.1-10.73-9.72-22.1-11.07-34.35-1.49-13.48-2.63-27.05-5.18-40.34-5.23-27.2,7.47-45.66,28.4-59.94,13.63-9.3,29.47-10.98,45.58-9.85,20.3,1.42,40.58,3.06,60.87,4.7,13.4,1.09,20.3,6.02,23.44,16.42,3.19,10.58-.55,20.04-10.45,28.07-19.1,15.49-41.89,20.12-65.4,22.78-1.98.22-3.96.42-6.12.65,4.18,10.02,14.67,15.27,26.7,13.33,18.11-2.91,35.62-1.33,52.54,5.96,20.3,8.74,35.05,24.04,48.54,40.84,10.57,13.15,18.65,27.51,22.13,44.24.38,1.85,2.15,3.42,3.27,5.11Z"/>
  <path class="cls-1" d="m309.32,330.5c13.38-3.84,26.72-7.79,40.17-11.37,1.4-.37,3.65,1.08,5.03,2.25,3.28,2.78,5.97,6.3,9.42,8.81,15.41,11.19,30.34,10.03,47.83-3.88,3.49-2.77,5.07-2.58,7.72.92,13.63,17.99,35.13,19.49,51.24,3.83,1-.97,2.14-1.8,3.68-3.07,1.32,2.21,2.47,4.06,3.54,5.95,5.8,10.34,14.55,15.23,26.45,14.52,11.93-.72,20.37-6.74,24.43-17.68,2.21-5.97,4.92-6.58,10.44-5.12,16.49,4.35,33.19,7.94,49.69,12.27,17.43,4.57,33.55,2.87,49.01-7.04,31.38-20.13,62.95-16.18,94.04.83,7.88,4.31,15.18,9.79,22.29,15.31,2.27,1.76,3.07,5.41,4.55,8.2-2.65,1.31-5.24,3.58-7.96,3.77-15.99,1.11-32.01,1.79-48.02,2.5-16.53.74-22.88,5.76-26.85,21.66-3.7,14.79-3,29.31,2.66,43.57,5.46,13.76,11.38,17.74,26.32,17.17,14.79-.57,29.58-1.41,44.38-1.7,3.84-.07,7.7,1.48,11.56,2.28-1.7,3.75-2.7,8.07-5.21,11.17-24.69,30.43-73.64,41.4-108.86,24.4-14.94-7.21-25.35-19.54-34.05-33.14-9.79-15.3-23.3-24.02-40.9-28.13-43.84-10.23-87.51-21.16-131.25-31.83-8.03-1.96-14.51-6.27-20.04-12.46-18.92-21.18-40.72-38.06-69.88-41.73-10.68-1.35-21.68-.12-32.53-.04-2.9.02-5.79.13-8.69.2-.06-.81-.13-1.62-.19-2.42Z"/>
  <path class="cls-1" d="m238.31,258.52c-8.02,9.87-13.64,15.04-20.95,25.88-.14.21-3.24,5.58-3.74,7.45-3.06,11.44-4.81,21.26-1.97,34.44.52,2.42-1.41,4.68-3.88,4.61-3.53-.09-6.82-.18-10.12-.18-15.67-.01-30.05,4.62-43.01,13.16-31.75,20.94-64.93,21.46-98.58,6.14-12.78-5.82-24.27-14.44-36.34-21.81-.69-.42-1.48-.96-1.81-1.64-1-2.02-1.94-4.07-2.87-6.13-.88-1.94-.01-4.22,1.93-5.11,1.79-.82,3.59-1.57,5.43-1.69,18.87-1.17,37.76-1.96,56.64-2.84,18.97-.88,26.53-7.15,30.77-25.63,3.89-16.94,3.24-33.53-2.99-49.61-5.1-13.17-18.13-21.54-32.24-21.01-17.17.64-34.34,1.41-51.51,2.12-1.23.05-2.57.38-3.68.02-2.84-.94-6.86-1.49-7.96-3.53-.93-1.73.93-5.77,2.61-7.99,25.99-34.37,77.51-49.62,117.59-34.83,18.78,6.93,32.55,20.32,44.78,35.57,4.24,5.29,8.57,10.51,12.78,15.82,12.36,15.58,29.1,24.36,47.41,30.75h0c2.5.88,3.37,3.97,1.7,6.03Z"/>
  <path class="cls-1" d="m485.03,256.8l-.37,1.74c-.47,2.45-.94,4.89-1.41,7.34-2.51,13.12-4.22,26.46-7.8,39.28-2.43,8.7-6.47,17.37-11.63,24.76-6.08,8.71-16.64,9.54-28.61,4.45-10.37-4.4-15.32-11.88-14.2-22.65,3.22-30.87,6.66-61.72,10.06-92.57.3-2.65.85-5.28,1.47-7.88,3.92-16.63,14.08-24.25,30.02-22.62,16.08,1.65,25.88,12.3,26.21,28.8.06,3.34-.09,6.7.03,10.13.08,2.49-.01,4.98-.39,7.44l-3.37,21.78Z"/>
  <path class="cls-1" d="m531.53,298.5l-2.43,16.47c-1.77,5.38-3.08,10.37-5.19,14.99-7.18,15.73-27,19.04-38.32,6.56-4.88-5.39-6.28-11.94-5.46-18.95,2.27-19.53,4.69-39.04,7.01-58.56l.28-3.26,4.99-27.16.27-.99c1.01-3.71,3.11-7.09,6.2-9.38,5-3.7,11.59-4.35,18.93-1.57,15.11,5.74,22.85,19.29,20.56,36.58-1.49,11.21-3.38,22.36-5.06,33.54-.18,1.17-1.28,7.47-1.57,10.13-.06.54-.13,1.07-.21,1.6Z"/>
  <path class="cls-1" d="m545.62,320.29c-1.17.78-3.83-.03-5.54-.81-2.41-1.1-4.72-2.42-7.18-3.82-.35-.2-.55-.59-.51-.98l1.98-21.19s0-.07.01-.1l1.4-7.24s.01-.05.02-.07c1.36-5.09,2.73-10.17,4.1-15.25.13-.47.57-.78,1.05-.75,0,0,.01,0,.02,0,.43.03.8.33.92.75.34,1.18.73,2.37.86,3.57,1.47,13.49,2.94,26.97,4.22,40.48.17,1.83-.18,4.64-1.34,5.42Z"/>
  <path class="cls-1" d="m371.22,255c-10.63-3.83-10.29-13.6-8.83-24.23,1.95-14.24,3.04-28.59,5-42.82,1.44-10.45,4.42-20.79,15.87-24.35,13.25-4.12,26.62-3.36,38.28,4.95,7.17,5.11,8.49,13.44,7.76,21.69-2.1,23.73-4.43,47.44-6.91,71.13-1.54,14.71-3.26,29.4-5.36,44.04-1.81,12.61-8.65,21.67-21.05,25.63-12.65,4.04-23.81,1.48-33.34-8.15-3.8-3.84-4.55-6.46.25-10.28,5.25-4.18,10.42-8.84,14.38-14.21,10.19-13.82,8.02-30.69-6.04-43.38Z"/>
  <path class="cls-1" d="m277.95,245.39c1.65-11.81,3.15-22.95,4.8-34.06.67-4.47,1.6-8.9,2.57-13.32,5.39-24.43,29.46-40.13,54.03-35.3,14.2,2.8,22.03,11.99,21.39,26.45-.83,19.09-2.25,38.16-3.68,57.21-.12,1.56-2.32,4.32-3.41,4.26-24.97-1.54-49.92-3.39-75.7-5.25Z"/>
</svg>